<svg width="26" height="26" viewBox="0 0 26 26" fill="none" xmlns="http://www.w3.org/2000/svg">
<g clip-path="url(#clip0_9_28)">
<path d="M18.6875 6.49999H18.6921H18.6875ZM24.3521 4.87499H19.728L20.181 3.06413L22.1269 2.40144C22.5408 2.26077 22.7871 1.82101 22.6677 1.40054C22.6374 1.29477 22.5858 1.19627 22.5163 1.11101C22.4467 1.02576 22.3605 0.955521 22.263 0.904569C22.1654 0.853617 22.0586 0.823008 21.9489 0.8146C21.8391 0.806193 21.7288 0.820161 21.6247 0.855657L19.238 1.66816C19.1094 1.71199 18.9939 1.78733 18.902 1.88731C18.8101 1.98729 18.7448 2.1087 18.7119 2.24046L18.0532 4.87499H11.3979C10.9606 4.87499 10.5854 5.21116 10.5635 5.64839C10.5582 5.75825 10.5753 5.86804 10.6137 5.9711C10.6521 6.07417 10.711 6.16837 10.7869 6.248C10.8627 6.32762 10.954 6.39101 11.0551 6.43433C11.1562 6.47764 11.265 6.49998 11.375 6.49999H11.5147L11.5654 6.93976C11.5774 7.04246 11.6267 7.13718 11.7039 7.2059C11.7812 7.27463 11.881 7.31256 11.9844 7.31249C13.9648 7.31249 15.7249 7.86601 17.0686 8.91312C17.816 9.48897 18.4218 10.228 18.8398 11.0739C19.0739 11.5496 19.2465 12.0532 19.3538 12.5724C19.3751 12.6736 19.435 12.7625 19.5208 12.8202C20.2116 13.289 20.7212 13.98 20.9649 14.7784C21.2086 15.5769 21.1718 16.4347 20.8604 17.2093C20.8242 17.2989 20.8215 17.3986 20.8528 17.4901C21.0327 18.0056 21.1247 18.5477 21.125 19.0937C21.125 20.2282 20.7391 21.3093 20.0383 22.1381C19.641 22.6111 19.1412 22.9874 18.5768 23.2385C18.4792 23.2815 18.4024 23.3612 18.363 23.4604C18.1521 24.0098 17.8543 24.5218 17.4809 24.9768C17.4654 24.9952 17.4554 25.0177 17.4522 25.0416C17.449 25.0655 17.4527 25.0899 17.4628 25.1118C17.473 25.1337 17.4891 25.1522 17.5094 25.1653C17.5297 25.1783 17.5533 25.1853 17.5774 25.1855H20.0764C20.6882 25.183 21.2769 24.9515 21.7267 24.5367C22.1764 24.1218 22.4545 23.5536 22.5063 22.944L24.243 6.49999H24.375C24.4851 6.50012 24.594 6.47788 24.6952 6.43463C24.7965 6.39137 24.8878 6.328 24.9638 6.24836C25.0398 6.16873 25.0988 6.07448 25.1372 5.97134C25.1757 5.86821 25.1928 5.75833 25.1875 5.64839C25.1662 5.21116 24.7894 4.87499 24.3521 4.87499Z" fill="#1A3C34"/>
<path d="M5.51942 16.25C5.67966 16.2492 5.83847 16.2803 5.98665 16.3413C6.13483 16.4023 6.26944 16.4921 6.3827 16.6055L7.17031 17.3931C7.18918 17.412 7.21158 17.427 7.23624 17.4372C7.2609 17.4474 7.28733 17.4527 7.31402 17.4527C7.34072 17.4527 7.36715 17.4474 7.39181 17.4372C7.41647 17.427 7.43887 17.412 7.45774 17.3931L8.24383 16.6055C8.35708 16.4921 8.49169 16.4023 8.63987 16.3413C8.78805 16.2803 8.94686 16.2492 9.10711 16.25H19.0897C19.143 16.2505 19.196 16.2406 19.2455 16.2206C19.295 16.2007 19.34 16.1712 19.3781 16.1339C19.4162 16.0965 19.4466 16.0521 19.4675 16.003C19.4884 15.9539 19.4995 15.9012 19.5 15.8478V15.8438C19.4994 15.3757 19.3375 14.9221 19.0415 14.5595C18.7455 14.1969 18.3335 13.9474 17.875 13.8531C17.8334 12.3454 17.2148 11.0835 16.0718 10.1969C15.0145 9.37219 13.6018 8.9375 11.9844 8.9375H8.32813C4.86383 8.9375 2.51723 10.9063 2.4375 13.8531C1.979 13.9474 1.56703 14.1969 1.27102 14.5595C0.975012 14.9221 0.813073 15.3757 0.812501 15.8438C0.812501 15.9515 0.855302 16.0548 0.931489 16.131C1.00768 16.2072 1.11101 16.25 1.21875 16.25H5.51942ZM9.44227 17.875C9.3889 17.875 9.33605 17.8854 9.28673 17.9058C9.23742 17.9262 9.1926 17.9561 9.15484 17.9938L8.03055 19.1186C7.84009 19.309 7.58181 19.416 7.3125 19.416C7.04319 19.416 6.78491 19.309 6.59445 19.1186L5.47016 17.9938C5.4324 17.9561 5.38758 17.9262 5.33827 17.9058C5.28895 17.8854 5.2361 17.875 5.18274 17.875H1.65852C1.46766 17.8742 1.28265 17.9408 1.13619 18.0632C0.989736 18.1856 0.89127 18.3558 0.858204 18.5438C0.827645 18.7255 0.812357 18.9095 0.812501 19.0938C0.812501 20.6471 1.88551 21.9126 3.21242 21.9375C3.33582 22.7053 3.63442 23.399 4.08383 23.9418C4.74856 24.7447 5.71492 25.1875 6.80469 25.1875H13.5078C14.5976 25.1875 15.5639 24.7447 16.2287 23.9408C16.6781 23.398 16.9767 22.7043 17.1001 21.9365C18.427 21.9126 19.5 20.6471 19.5 19.0927C19.5001 18.9085 19.4849 18.7245 19.4543 18.5428C19.421 18.355 19.3225 18.185 19.176 18.0628C19.0296 17.9406 18.8447 17.8741 18.654 17.875H9.44227Z" fill="#1A3C34"/>
</g>
<defs>
<clipPath id="clip0_9_28">
<rect width="26" height="26" fill="white"/>
</clipPath>
</defs>
</svg>
